<?xml version="1.0" encoding="UTF-8" standalone="no"?>
<svg xmlns="http://www.w3.org/2000/svg" xmlns:xlink="http://www.w3.org/1999/xlink" width="40px" height="40px" viewBox="0 0 40 40" version="1.1"><title>Smiling Attentive</title><desc>Your unique vanillicon is crafted with love by the team at vanillaforums.com.</desc><defs/><g id="vanillicon" stroke="none" stroke-width="1" fill="none" fill-rule="evenodd"><rect id="background" fill="#930039" x="-2" y="-2" width="44" height="44"/><g id="avatar" transform="rotate(37, 20, 20) translate(3.000000, 3.000000)"><circle id="body" fill="#284CC7" cx="17" cy="17" r="16"/><g id="eyes" transform="translate(8.000000, 11.000000)" fill="#FBFDFB"><path d="M0.695393948,5.30460605 C1.7560596,6.3652717 3.64770627,6.19330382 4.92050504,4.92050504 C6.19330382,3.64770627 6.3652717,1.7560596 5.30460605,0.695393948 C4.2439404,-0.365271699 2.35229373,-0.19330382 1.07949496,1.07949496 C-0.19330382,2.35229373 -0.365271699,4.2439404 0.695393948,5.30460605 L0.695393948,5.30460605 Z" id="left_eye"/><path d="M12.6953939,5.30460605 C13.7560596,6.3652717 15.6477063,6.19330382 16.920505,4.92050504 C18.1933038,3.64770627 18.3652717,1.7560596 17.3046061,0.695393948 C16.2439404,-0.365271699 14.3522937,-0.19330382 13.079495,1.07949496 C11.8066962,2.35229373 11.6347283,4.2439404 12.6953939,5.30460605 L12.6953939,5.30460605 Z" id="right_eye" transform="translate(15.000000, 3.000000) scale(-1, 1) translate(-15.000000, -3.000000) "/></g><g id="mouth" transform="translate(9.000000, 22.000000)" fill="#FBFDFB"><path d="M8,3 C5.96789841,3 4.05823694,2.24131629 2.59170015,0.895011848 C1.98143205,0.334775879 1.03255101,0.375334939 0.472315046,0.985603044 C-0.0879209237,1.59587115 -0.0473618641,2.54475218 0.562906241,3.10498815 C2.57763319,4.95454001 5.20913118,6 8,6 C10.7908688,6 13.4223668,4.95454001 15.4370938,3.10498815 C16.0473619,2.54475218 16.0879209,1.59587115 15.527685,0.985603044 C14.967449,0.375334939 14.018568,0.334775879 13.4082998,0.895011848 C11.9417631,2.24131629 10.0321016,3 8,3 Z" id="mouth"/></g><path d="M34,17 C34,7.61115925 26.3888407,0 17,0 C7.61115925,0 0,7.61115925 0,17 C0,26.3888407 7.61115925,34 17,34 C26.3888407,34 34,26.3888407 34,17 Z M3,17 C3,9.2680135 9.2680135,3 17,3 C24.7319865,3 31,9.2680135 31,17 C31,24.7319865 24.7319865,31 17,31 C9.2680135,31 3,24.7319865 3,17 Z" id="circle" fill="#FBFDFB"/></g></g></svg>
