<?xml version="1.0" encoding="UTF-8" standalone="no"?>
<svg xmlns="http://www.w3.org/2000/svg" xmlns:xlink="http://www.w3.org/1999/xlink" width="40px" height="40px" viewBox="0 0 40 40" version="1.1"><title>Smiling Sleep</title><desc>Your unique vanillicon is crafted with love by the team at vanillaforums.com.</desc><defs/><g id="vanillicon" stroke="none" stroke-width="1" fill="none" fill-rule="evenodd"><rect id="background" fill="#0CA2DC" x="-2" y="-2" width="44" height="44"/><g id="avatar" transform="rotate(-18, 20, 20) translate(3.000000, 3.000000)"><circle id="body" fill="#2D1A34" cx="17" cy="17" r="16"/><g id="eyes" transform="translate(8.000000, 12.000000)" fill="#FF6BA5"><path d="M4,4 C5.5286763,4 7.25070761,3.23465275 7.89442719,1.9472136 C8.14141644,1.4532351 7.94119209,0.852562058 7.4472136,0.605572809 C6.9532351,0.35858356 6.35256206,0.558807907 6.10557281,1.0527864 C5.85643524,1.55106153 4.8463237,2 4,2 C3.1536763,2 2.14356476,1.55106153 1.89442719,1.0527864 C1.64743794,0.558807907 1.0467649,0.35858356 0.552786405,0.605572809 C0.0588079071,0.852562058 -0.14141644,1.4532351 0.105572809,1.9472136 C0.749292387,3.23465275 2.4713237,4 4,4 Z" id="left_eye"/><path d="M14,4 C15.5286763,4 17.2507076,3.23465275 17.8944272,1.9472136 C18.1414164,1.4532351 17.9411921,0.852562058 17.4472136,0.605572809 C16.9532351,0.35858356 16.3525621,0.558807907 16.1055728,1.0527864 C15.8564352,1.55106153 14.8463237,2 14,2 C13.1536763,2 12.1435648,1.55106153 11.8944272,1.0527864 C11.6474379,0.558807907 11.0467649,0.35858356 10.5527864,0.605572809 C10.0588079,0.852562058 9.85858356,1.4532351 10.1055728,1.9472136 C10.7492924,3.23465275 12.4713237,4 14,4 Z" id="right_eye"/></g><g id="mouth" transform="translate(9.000000, 22.000000)" fill="#FF6BA5"><path d="M8,3 C5.96789841,3 4.05823694,2.24131629 2.59170015,0.895011848 C1.98143205,0.334775879 1.03255101,0.375334939 0.472315046,0.985603044 C-0.0879209237,1.59587115 -0.0473618641,2.54475218 0.562906241,3.10498815 C2.57763319,4.95454001 5.20913118,6 8,6 C10.7908688,6 13.4223668,4.95454001 15.4370938,3.10498815 C16.0473619,2.54475218 16.0879209,1.59587115 15.527685,0.985603044 C14.967449,0.375334939 14.018568,0.334775879 13.4082998,0.895011848 C11.9417631,2.24131629 10.0321016,3 8,3 Z" id="mouth"/></g><g id="circle" fill="#FF6BA5"><path d="M16.4473877,1.88055419 C17.0647582,1.73400879 17.7334872,1.48647343 18.1742555,1.66278076 C18.4387165,2.3680101 18.5668945,2.68414303 18.4658203,3.4064941 C18.9156494,3.79345711 19.4125368,3.96191415 19.4885256,5.36254891 C19.5912566,7.25609985 16.8875311,8.26383931 16.7993773,8.12792989 C16.7112236,7.99202047 18.2219202,7.06195799 18.3010865,6.27679443 C18.3791505,5.50256348 18.0407104,5.22241219 18.0407104,5.22241219 C18.0407104,5.22241219 17.866449,6.124539 16.8967588,6.38900001 C15.9270685,6.65346101 14.7558369,6.01281747 14.7558369,4.81969692 C14.7558369,3.85000224 15.5709332,2.99444411 16.7993773,3.132019 C16.7993773,3.132019 16.9006983,2.75353998 16.4473877,1.88055419 Z M17,3.93463135 C17,3.93463135 17.3854238,5.15338137 16.5111562,5.15338137 C15.7011586,5.15338137 15.7310181,4.51538086 15.9780273,4.16876221 C16.2250366,3.82214356 17,3.93463135 17,3.93463135 Z" id="curl"/><path d="M34,17 C34,7.61115925 26.3888407,0 17,0 C7.61115925,0 0,7.61115925 0,17 C0,26.3888407 7.61115925,34 17,34 C26.3888407,34 34,26.3888407 34,17 Z M3,17 C3,9.2680135 9.2680135,3 17,3 C24.7319865,3 31,9.2680135 31,17 C31,24.7319865 24.7319865,31 17,31 C9.2680135,31 3,24.7319865 3,17 Z" id="c"/></g></g></g></svg>
